<?xml version="1.0" encoding="utf-8"?>
<!-- Generator: Adobe Illustrator 27.0.0, SVG Export Plug-In . SVG Version: 6.00 Build 0)  -->
<svg version="1.1" id="Layer_3" xmlns="http://www.w3.org/2000/svg" xmlns:xlink="http://www.w3.org/1999/xlink" x="0px" y="0px"
	 viewBox="0 0 24 24" enable-background="new 0 0 24 24" xml:space="preserve">
<g>
	<g>
		<path fill="#F1FCDB" d="M15.377,10.311H5.1694c-0.6059,0-1.0782-0.1921-1.4046-0.571C3.1946,9.078,3.3328,8.0993,3.3396,8.0575
			C3.3715,7.8457,3.5628,7.7037,3.7792,7.731c0.2126,0.0311,0.3591,0.2285,0.3295,0.4404c-0.0015,0.0068-0.0911,0.675,0.2475,1.0637
			c0.1739,0.2012,0.4404,0.2984,0.8132,0.2984H15.377c0.2141,0,0.3887,0.1739,0.3887,0.3887
			C15.7657,10.1371,15.5911,10.311,15.377,10.311z"/>
	</g>
	<g>
		<path fill="#F1FCDB" d="M2.2379,12.6632c-0.3394,0-0.6074-0.1063-0.6507-0.1238c-0.1982-0.0828-0.2916-0.3105-0.2096-0.5087
			c0.082-0.1989,0.3098-0.2931,0.5064-0.2103c0.0972,0.0387,0.3948,0.1169,0.6165,0.0129c0.1412-0.0653,0.243-0.1989,0.3128-0.4085
			c0.0691-0.2027,0.29-0.3128,0.492-0.246c0.2035,0.0683,0.3136,0.2885,0.246,0.492c-0.1754,0.5247-0.4943,0.7638-0.7319,0.8716
			C2.6213,12.6328,2.4194,12.6632,2.2379,12.6632z"/>
	</g>
	<g>
		<path fill="#F1FCDB" d="M4.9887,17.6281c-1.41,0-2.5564-1.1465-2.5564-2.5572c0-1.41,1.1465-2.5564,2.5564-2.5564
			s2.5572,1.1465,2.5572,2.5564C7.5459,16.4816,6.3987,17.6281,4.9887,17.6281z M4.9887,13.2919c-0.981,0-1.779,0.798-1.779,1.779
			s0.798,1.7797,1.779,1.7797s1.7797-0.7987,1.7797-1.7797S5.9697,13.2919,4.9887,13.2919z"/>
	</g>
	<g>
		<path fill="#F1FCDB" d="M4.9887,16.3631c-0.7122,0-1.2923-0.5801-1.2923-1.2923c0-0.7122,0.5801-1.2915,1.2923-1.2915
			s1.2923,0.5793,1.2923,1.2915C6.281,15.783,5.7009,16.3631,4.9887,16.3631z M4.9887,14.5568c-0.284,0-0.5148,0.2308-0.5148,0.514
			c0,0.284,0.2308,0.5148,0.5148,0.5148s0.5148-0.2308,0.5148-0.5148C5.5035,14.7876,5.2727,14.5568,4.9887,14.5568z"/>
	</g>
	<g>
		<path fill="#F1FCDB" d="M17.7262,17.6281c-1.4107,0-2.5572-1.1465-2.5572-2.5572c0-1.41,1.1465-2.5564,2.5572-2.5564
			c1.4107,0,2.5572,1.1465,2.5572,2.5564C20.2834,16.4816,19.1369,17.6281,17.7262,17.6281z M17.7262,13.2919
			c-0.981,0-1.7797,0.798-1.7797,1.779s0.7987,1.7797,1.7797,1.7797s1.7797-0.7987,1.7797-1.7797S18.7071,13.2919,17.7262,13.2919z"
			/>
	</g>
	<g>
		<path fill="#F1FCDB" d="M17.7262,16.3631c-0.7122,0-1.2923-0.5801-1.2923-1.2923c0-0.7122,0.5801-1.2915,1.2923-1.2915
			s1.2923,0.5793,1.2923,1.2915C19.0184,15.783,18.4384,16.3631,17.7262,16.3631z M17.7262,14.5568
			c-0.284,0-0.5148,0.2308-0.5148,0.514c0,0.284,0.2308,0.5148,0.5148,0.5148c0.284,0,0.5148-0.2308,0.5148-0.5148
			C18.2409,14.7876,18.0101,14.5568,17.7262,14.5568z"/>
	</g>
	<g>
		<path fill="none" stroke="#F1FCDB" stroke-width="0.5" stroke-miterlimit="10" d="M2.8208,15.2519"/>
	</g>
	<g>
		<rect x="7.0668" y="14.8628" fill="#F1FCDB" width="8.4909" height="0.7775"/>
	</g>
	<g>
		<path fill="#F1FCDB" d="M20.9789,15.6403h-0.9035v-0.7775h0.9035c0.328,0,0.6044-0.2771,0.6044-0.6044v-2.8009
			c0-0.1951-0.0668-0.3903-0.205-0.596l-1.9027-2.9892c-0.3007-0.4502-0.82-0.7228-1.3879-0.7228H3.4535
			c-0.7555,0-1.4183,0.6203-1.4183,1.3272v5.7818c0,0.3272,0.2771,0.6044,0.6051,0.6044h0.2711v0.7775H2.6403
			c-0.7623,0-1.3826-0.6196-1.3826-1.3819V8.4766c0-1.1412,1.0053-2.1047,2.1958-2.1047h14.6341
			c0.8276,0,1.5899,0.4024,2.0394,1.0759l1.9027,2.9885c0.2187,0.3265,0.331,0.6719,0.331,1.0212v2.8009
			C22.3607,15.0207,21.7412,15.6403,20.9789,15.6403z"/>
	</g>
	<g>
		<path fill="#F1FCDB" d="M22.3531,9.6785c-0.1215,0-0.243-0.0577-0.3189-0.1655L21.401,8.6095
			c-0.0547-0.1002-0.1093-0.1055-0.1321-0.1055h-0.9035c-0.2141,0-0.3887-0.1739-0.3887-0.3887
			c0-0.2149,0.1746-0.3887,0.3887-0.3887h0.9035c0.3447,0,0.6499,0.1868,0.7987,0.4874l0.6044,0.8527
			c0.123,0.1761,0.0805,0.4184-0.0957,0.5414C22.508,9.6558,22.4306,9.6785,22.3531,9.6785z"/>
	</g>
	<g>
		<path fill="#F1FCDB" d="M21.0684,11.6655c-0.0152,0-0.0304-0.0008-0.0456-0.003l-1.5352-0.1807
			c-0.5057-0.123-0.8565-0.3591-1.0918-0.7114l-1.3712-2.4661c-0.1033-0.1883-0.0364-0.4244,0.1519-0.5292
			c0.1868-0.1017,0.4237-0.0364,0.5284,0.1511l1.3545,2.4395c0.1093,0.1617,0.3007,0.2862,0.5679,0.3531l1.4866,0.1724
			c0.2126,0.0251,0.366,0.2179,0.3402,0.4313C21.4314,11.5198,21.2628,11.6655,21.0684,11.6655z"/>
	</g>
	<g>
		<path fill="#F1FCDB" d="M22.2711,14.1225h-1.0857c-0.448,0-0.738-0.287-0.738-0.7319v-0.6864c0-0.4449,0.29-0.7319,0.738-0.7319
			h1.0857V14.1225z M21.2249,13.3428l0.2688,0.0008v-0.5937h-0.2673L21.2249,13.3428z"/>
	</g>
</g>
<rect fill="none" width="24" height="24"/>
</svg>
