<?xml version="1.0" encoding="utf-8"?>
<!-- Generator: Adobe Illustrator 27.0.0, SVG Export Plug-In . SVG Version: 6.00 Build 0)  -->
<svg version="1.1" id="Layer_3" xmlns="http://www.w3.org/2000/svg" xmlns:xlink="http://www.w3.org/1999/xlink" x="0px" y="0px"
	 viewBox="0 0 24 24" enable-background="new 0 0 24 24" xml:space="preserve">
<g>
	<rect fill="none" width="24" height="24"/>
	<g>
		<g>
			<g>
				<path fill="#F1FCDB" d="M15.2935,15.9835H5.3383c-0.5909,0-1.0515-0.1873-1.3699-0.5569
					c-0.5561-0.6457-0.4213-1.6002-0.4147-1.6409c0.0311-0.2066,0.2177-0.3451,0.4287-0.3184
					c0.2073,0.0304,0.3503,0.2229,0.3214,0.4295c-0.0015,0.0067-0.0889,0.6583,0.2414,1.0374
					c0.1696,0.1962,0.4295,0.291,0.7931,0.291h9.9552c0.2088,0,0.3791,0.1696,0.3791,0.3791S15.5023,15.9835,15.2935,15.9835z"/>
			</g>
			<g>
				<path fill="#F1FCDB" d="M2.4792,18.2776c-0.331,0-0.5924-0.1037-0.6346-0.1207c-0.1933-0.0807-0.2844-0.3029-0.2044-0.4961
					c0.08-0.194,0.3021-0.2858,0.4939-0.2051c0.0948,0.0378,0.3851,0.114,0.6013,0.0126c0.1377-0.0637,0.237-0.194,0.3051-0.3984
					c0.0674-0.1977,0.2829-0.3051,0.4798-0.2399c0.1985,0.0666,0.3058,0.2814,0.2399,0.4798
					c-0.1711,0.5117-0.4821,0.7449-0.7138,0.8501C2.8532,18.248,2.6562,18.2776,2.4792,18.2776z"/>
			</g>
			<g>
				<path fill="#F1FCDB" d="M5.162,23.1197c-1.3751,0-2.4933-1.1181-2.4933-2.494c0-1.3751,1.1181-2.4932,2.4933-2.4932
					s2.494,1.1181,2.494,2.4932C7.656,22.0015,6.5372,23.1197,5.162,23.1197z M5.162,18.8907c-0.9567,0-1.735,0.7783-1.735,1.735
					s0.7783,1.7357,1.735,1.7357s1.7357-0.779,1.7357-1.7357S6.1188,18.8907,5.162,18.8907z"/>
			</g>
			<g>
				<path fill="#F1FCDB" d="M5.162,21.886c-0.6946,0-1.2603-0.5657-1.2603-1.2603s0.5657-1.2596,1.2603-1.2596
					s1.2603,0.565,1.2603,1.2596S5.8566,21.886,5.162,21.886z M5.162,20.1244c-0.2769,0-0.5021,0.2251-0.5021,0.5013
					c0,0.2769,0.2251,0.5021,0.5021,0.5021c0.2769,0,0.5021-0.2251,0.5021-0.5021C5.6641,20.3495,5.439,20.1244,5.162,20.1244z"/>
			</g>
			<g>
				<path fill="#F1FCDB" d="M17.5846,23.1197c-1.3758,0-2.494-1.1181-2.494-2.494c0-1.3751,1.1181-2.4932,2.494-2.4932
					c1.3758,0,2.494,1.1181,2.494,2.4932C20.0786,22.0015,18.9605,23.1197,17.5846,23.1197z M17.5846,18.8907
					c-0.9567,0-1.7357,0.7783-1.7357,1.735s0.779,1.7357,1.7357,1.7357c0.9567,0,1.7357-0.779,1.7357-1.7357
					S18.5413,18.8907,17.5846,18.8907z"/>
			</g>
			<g>
				<path fill="#F1FCDB" d="M17.5846,21.886c-0.6946,0-1.2603-0.5657-1.2603-1.2603s0.5657-1.2596,1.2603-1.2596
					c0.6946,0,1.2603,0.565,1.2603,1.2596S18.2792,21.886,17.5846,21.886z M17.5846,20.1244c-0.2769,0-0.5021,0.2251-0.5021,0.5013
					c0,0.2769,0.2251,0.5021,0.5021,0.5021s0.5021-0.2251,0.5021-0.5021C18.0867,20.3495,17.8616,20.1244,17.5846,20.1244z"/>
			</g>
			<g>
				<path fill="none" stroke="#F1FCDB" stroke-width="0.5" stroke-miterlimit="10" d="M3.0477,20.8022"/>
			</g>
			<g>
				<rect x="7.1888" y="20.4228" fill="#F1FCDB" width="8.281" height="0.7583"/>
			</g>
			<g>
				<path fill="#F1FCDB" d="M20.7569,21.1811h-0.8812v-0.7583h0.8812c0.3199,0,0.5894-0.2703,0.5894-0.5894v-2.7317
					c0-0.1903-0.0652-0.3806-0.1999-0.5813l-1.8557-2.9153c-0.2932-0.4391-0.7997-0.705-1.3536-0.705H3.6648
					c-0.7368,0-1.3832,0.605-1.3832,1.2944v5.6389c0,0.3192,0.2703,0.5894,0.5902,0.5894h0.2644v0.7583H2.8717
					c-0.7435,0-1.3484-0.6042-1.3484-1.3477v-5.6389c0-1.113,0.9804-2.0527,2.1415-2.0527h14.2723
					c0.8071,0,1.5506,0.3925,1.989,1.0493l1.8557,2.9146c0.2133,0.3184,0.3229,0.6553,0.3229,0.996v2.7317
					C22.1046,20.5768,21.5004,21.1811,20.7569,21.1811z"/>
			</g>
			<g>
				<path fill="#F1FCDB" d="M22.0972,15.3667c-0.1185,0-0.237-0.0563-0.311-0.1614l-0.6176-0.8812
					c-0.0533-0.0977-0.1066-0.1029-0.1288-0.1029h-0.8812c-0.2088,0-0.3791-0.1696-0.3791-0.3791s0.1703-0.3791,0.3791-0.3791
					h0.8812c0.3362,0,0.6339,0.1822,0.779,0.4754l0.5894,0.8316c0.12,0.1718,0.0785,0.408-0.0933,0.528
					C22.2483,15.3445,22.1727,15.3667,22.0972,15.3667z"/>
			</g>
			<g>
				<path fill="#F1FCDB" d="M20.8443,17.3046c-0.0148,0-0.0296-0.0007-0.0444-0.003l-1.4973-0.1762
					c-0.4932-0.12-0.8353-0.3503-1.0648-0.6938l-1.3373-2.4051c-0.1007-0.1836-0.0355-0.4139,0.1481-0.5161
					c0.1822-0.0992,0.4132-0.0355,0.5154,0.1474l1.321,2.3792c0.1066,0.1577,0.2932,0.2792,0.5539,0.3443l1.4499,0.1681
					c0.2073,0.0244,0.3569,0.2125,0.3317,0.4206C21.1982,17.1624,21.0338,17.3046,20.8443,17.3046z"/>
			</g>
			<g>
				<path fill="#F1FCDB" d="M22.0172,19.7008h-1.0589c-0.4369,0-0.7198-0.2799-0.7198-0.7138v-0.6694
					c0-0.4339,0.2829-0.7138,0.7198-0.7138h1.0589V19.7008z M20.9968,18.9403l0.2621,0.0007V18.362h-0.2607L20.9968,18.9403z"/>
			</g>
		</g>
		<g>
			<path fill="#F1FCDB" d="M12,0.8803c-1.9489,0-3.5249,1.5762-3.5249,3.5249C8.4751,7.049,12,10.9516,12,10.9516
				s3.5249-3.9027,3.5249-6.5464C15.5249,2.4564,13.9487,0.8803,12,0.8803z M9.4821,4.4053c0-1.3898,1.128-2.5178,2.5178-2.5178
				s2.5178,1.128,2.5178,2.5178c0,1.4502-1.4502,3.6207-2.5178,4.9753C10.9525,8.036,9.4821,5.8403,9.4821,4.4053z"/>
			<circle fill="#F1FCDB" cx="12" cy="4.4053" r="1.259"/>
		</g>
	</g>
</g>
</svg>
