<?xml version="1.0" encoding="utf-8"?>
<!-- Generator: Adobe Illustrator 27.0.0, SVG Export Plug-In . SVG Version: 6.00 Build 0)  -->
<svg version="1.1" id="Layer_3" xmlns="http://www.w3.org/2000/svg" xmlns:xlink="http://www.w3.org/1999/xlink" x="0px" y="0px"
	 viewBox="0 0 24 24" style="enable-background:new 0 0 24 24;" xml:space="preserve">
<style type="text/css">
	.st0{fill:none;}
	.st1{fill:#E0FFF2;}
	.st2{stroke:#FFFFFF;stroke-width:0.5;stroke-miterlimit:10;}
</style>
<g>
	<rect class="st0" width="24" height="24"/>
	<g>
		<g>
			<circle class="st1" cx="12" cy="12" r="10.8"/>
			<path d="M12,23.3C5.7,23.3,0.7,18.2,0.7,12S5.7,0.7,12,0.7c6.2,0,11.3,5.1,11.3,11.3C23.2,18.2,18.2,23.3,12,23.3z M12,1.7
				C6.3,1.7,1.7,6.3,1.7,12S6.3,22.3,12,22.3S22.2,17.7,22.2,12S17.6,1.7,12,1.7z"/>
		</g>
		<g>
			<g>
				<path d="M14.7,10.7H6.5c-0.5,0-0.9-0.2-1.1-0.5C5,9.7,5.1,8.9,5.1,8.8c0-0.2,0.2-0.3,0.4-0.3c0.2,0,0.3,0.2,0.3,0.4
					c0,0-0.1,0.5,0.2,0.9C6,10,6.2,10,6.5,10h8.2c0.2,0,0.3,0.1,0.3,0.3S14.9,10.7,14.7,10.7z"/>
			</g>
			<g>
				<path d="M4.2,12.5c-0.3,0-0.5-0.1-0.5-0.1c-0.2-0.1-0.2-0.2-0.2-0.4c0.1-0.2,0.2-0.2,0.4-0.2c0.1,0,0.3,0.1,0.5,0
					c0.1-0.1,0.2-0.2,0.2-0.3c0.1-0.2,0.2-0.2,0.4-0.2c0.2,0.1,0.3,0.2,0.2,0.4c-0.1,0.4-0.4,0.6-0.6,0.7
					C4.5,12.5,4.3,12.5,4.2,12.5z"/>
			</g>
			<g>
				<path d="M6.4,16.5c-1.1,0-2-0.9-2-2c0-1.1,0.9-2,2-2s2,0.9,2,2C8.4,15.6,7.5,16.5,6.4,16.5z M6.4,13C5.6,13,5,13.7,5,14.5
					s0.6,1.4,1.4,1.4s1.4-0.6,1.4-1.4S7.2,13,6.4,13z"/>
			</g>
			<g>
				<path d="M6.4,15.5c-0.6,0-1-0.5-1-1s0.5-1,1-1s1,0.5,1,1S7,15.5,6.4,15.5z M6.4,14C6.2,14,6,14.2,6,14.5c0,0.2,0.2,0.4,0.4,0.4
					s0.4-0.2,0.4-0.4C6.8,14.2,6.6,14,6.4,14z"/>
			</g>
			<g>
				<path d="M16.6,16.5c-1.1,0-2-0.9-2-2c0-1.1,0.9-2,2-2s2,0.9,2,2C18.6,15.6,17.7,16.5,16.6,16.5z M16.6,13
					c-0.8,0-1.4,0.6-1.4,1.4s0.6,1.4,1.4,1.4c0.8,0,1.4-0.6,1.4-1.4S17.4,13,16.6,13z"/>
			</g>
			<g>
				<path d="M16.6,15.5c-0.6,0-1-0.5-1-1s0.5-1,1-1c0.6,0,1,0.5,1,1S17.1,15.5,16.6,15.5z M16.6,14c-0.2,0-0.4,0.2-0.4,0.4
					c0,0.2,0.2,0.4,0.4,0.4s0.4-0.2,0.4-0.4C17,14.2,16.8,14,16.6,14z"/>
			</g>
			<g>
				<path class="st2" d="M4.7,14.6"/>
			</g>
			<g>
				<rect x="8.1" y="14.3" width="6.8" height="0.6"/>
			</g>
			<g>
				<path d="M19.2,14.9h-0.7v-0.6h0.7c0.3,0,0.5-0.2,0.5-0.5v-2.2c0-0.2-0.1-0.3-0.2-0.5L18,8.7c-0.2-0.4-0.7-0.6-1.1-0.6H5.2
					C4.6,8.1,4,8.6,4,9.2v4.6c0,0.3,0.2,0.5,0.5,0.5h0.2v0.6H4.5c-0.6,0-1.1-0.5-1.1-1.1V9.2c0-0.9,0.8-1.7,1.8-1.7h11.7
					c0.7,0,1.3,0.3,1.6,0.9l1.5,2.4c0.2,0.3,0.3,0.5,0.3,0.8v2.2C20.3,14.4,19.8,14.9,19.2,14.9z"/>
			</g>
			<g>
				<path d="M20.3,10.1c-0.1,0-0.2,0-0.3-0.1l-0.5-0.7c0-0.1-0.1-0.1-0.1-0.1h-0.7c-0.2,0-0.3-0.1-0.3-0.3s0.1-0.3,0.3-0.3h0.7
					c0.3,0,0.5,0.1,0.6,0.4l0.5,0.7c0.1,0.1,0.1,0.3-0.1,0.4C20.4,10.1,20.3,10.1,20.3,10.1z"/>
			</g>
			<g>
				<path d="M19.2,11.7C19.2,11.7,19.2,11.7,19.2,11.7L18,11.6c-0.4-0.1-0.7-0.3-0.9-0.6L16,9c-0.1-0.2,0-0.3,0.1-0.4
					c0.1-0.1,0.3,0,0.4,0.1l1.1,1.9c0.1,0.1,0.2,0.2,0.5,0.3l1.2,0.1c0.2,0,0.3,0.2,0.3,0.3C19.5,11.6,19.4,11.7,19.2,11.7z"/>
			</g>
			<g>
				<path d="M20.2,13.7h-0.9c-0.4,0-0.6-0.2-0.6-0.6v-0.5c0-0.4,0.2-0.6,0.6-0.6h0.9V13.7z M19.4,13.1l0.2,0v-0.5h-0.2L19.4,13.1z"
					/>
			</g>
		</g>
	</g>
</g>
</svg>
